<?xml version="1.0" encoding="utf-8"?>
<!-- Svg Vector Icons : http://www.onlinewebfonts.com/icon -->
<!DOCTYPE svg PUBLIC "-//W3C//DTD SVG 1.1//EN" "http://www.w3.org/Graphics/SVG/1.1/DTD/svg11.dtd">
<svg version="1.1" xmlns="http://www.w3.org/2000/svg" xmlns:xlink="http://www.w3.org/1999/xlink" x="0px" y="0px" viewBox="0 0 1000 1000" enable-background="new 0 0 1000 1000" xml:space="preserve">
<metadata> Svg Vector Icons : http://www.onlinewebfonts.com/icon </metadata>
<g><path d="M501,10c-197.5,0-358.7,160.5-358.7,356.7c0,57.2,15,110.9,39.2,158.8c14.4,28.5,31.6,54.9,52.9,78.4L501,990l264.6-386.1c21.3-23.5,40.5-49.9,54.9-78.4c24.2-47.9,37.2-101.5,37.2-158.8C857.7,170.5,698.5,10,501,10z M501,82.5c158.6,0,286.2,129.4,286.2,288.1c0,46.3-10,88.6-29.4,127.4c-11.6,23.1-26,45.7-43.1,64.7L501,874.4L287.4,562.7c-17.1-19-31.5-41.6-43.1-64.7c-19.5-38.7-31.4-81.1-31.4-127.4C212.9,211.9,342.4,82.5,501,82.5L501,82.5z"/><path d="M499,195.2c-90.6,0-163.7,73.1-163.7,163.7c0,90.5,73.2,163.7,163.7,163.7c90.5,0,165.7-73.1,165.7-163.7C664.7,268.3,589.5,195.2,499,195.2L499,195.2z M499,260.7c54.6,0,100.2,43.6,100.2,98.2s-45.7,98.2-100.2,98.2c-54.6,0-98.2-43.6-98.2-98.2S444.4,260.7,499,260.7L499,260.7z"/></g>
</svg>